<?xml version="1.0" standalone="no"?>
<!DOCTYPE svg PUBLIC "-//W3C//DTD SVG 20010904//EN"
 "http://www.w3.org/TR/2001/REC-SVG-20010904/DTD/svg10.dtd">
<svg version="1.0"
    xmlns="http://www.w3.org/2000/svg" width="495.000000pt" height="505.000000pt" viewBox="0 0 495.000000 505.000000" preserveAspectRatio="xMidYMid meet">

    <g transform="translate(0.000000,505.000000) scale(0.100000,-0.100000)" fill="#727272" stroke="none">
        <path d="M2335 4923 c-724 -36 -1404 -407 -1827 -998 -296 -414 -448 -887
-448 -1395 0 -339 59 -634 186 -938 98 -234 257 -486 411 -652 48 -53 60 -60
93 -60 53 0 87 34 95 96 56 433 294 834 652 1098 l86 64 88 -67 c91 -69 240
-153 339 -190 317 -121 716 -99 1022 55 74 37 209 126 256 168 l40 36 78 -56
c331 -237 564 -595 645 -989 l18 -90 -62 -63 c-187 -191 -483 -384 -737 -481
-299 -114 -555 -157 -880 -148 -339 9 -587 70 -910 223 l-139 65 -35 -16 c-57
-27 -72 -108 -28 -149 28 -24 277 -140 377 -174 157 -54 248 -76 475 -117 89
-15 346 -23 481 -15 660 42 1254 343 1690 856 141 166 295 422 382 634 263
645 230 1376 -91 2005 -62 122 -223 367 -255 390 -32 23 -82 19 -114 -9 -45
-39 -39 -87 24 -172 79 -107 151 -228 214 -359 333 -697 275 -1523 -152 -2169
-38 -58 -73 -107 -78 -110 -5 -3 -27 52 -50 122 -133 409 -410 764 -766 982
-98 60 -116 58 -209 -23 -230 -201 -462 -290 -751 -289 -285 0 -547 104 -755
298 -69 64 -92 70 -154 39 -28 -14 -91 -54 -140 -89 -316 -227 -551 -548 -668
-913 -24 -73 -46 -133 -49 -133 -3 0 -37 48 -76 108 -205 310 -320 629 -358
992 -100 935 392 1819 1240 2230 229 111 468 180 729 211 158 19 473 7 631
-24 193 -37 360 -90 528 -166 38 -17 81 -31 96 -31 60 0 97 58 77 120 -9 30
-22 41 -86 72 -230 115 -555 198 -853 218 -129 9 -158 9 -282 3z"/>
        <path d="M2335 4138 c-285 -32 -571 -232 -701 -491 -76 -149 -104 -268 -104
-432 0 -316 148 -598 405 -772 230 -155 528 -201 790 -122 305 92 549 345 636
659 20 73 24 107 23 240 -1 139 -3 164 -28 245 -115 376 -417 632 -799 674
-107 12 -109 12 -222 -1z m350 -211 c131 -46 213 -96 300 -183 225 -224 284
-564 149 -849 -74 -154 -189 -270 -346 -350 -121 -61 -208 -78 -361 -73 -206
8 -347 68 -493 213 -141 141 -208 287 -220 485 -23 355 210 676 556 770 109
29 314 23 415 -13z"/>
    </g>
</svg>
